<svg xmlns="http://www.w3.org/2000/svg" width="32" height="32" fill="none"><g clip-path="url(#a)"><path fill="url(#b)" d="M0 0h32v32H0z"/><path fill="url(#c)" d="M5.333 10.133h1.6c8.248 0 14.934 6.686 14.934 14.934v1.6h3.2a1.6 1.6 0 0 0 1.6-1.6c0-10.899-8.835-19.734-19.734-19.734a1.6 1.6 0 0 0-1.6 1.6v3.2Z"/><path fill="url(#d)" d="M22.4 25.067h4.267a1.6 1.6 0 0 1-1.6 1.6H22.4v-1.6Z"/><path fill="url(#e)" d="M6.933 5.333V9.6h-1.6V6.933a1.6 1.6 0 0 1 1.6-1.6Z"/><path fill="url(#f)" d="M5.333 9.6h1.6c8.542 0 15.467 6.925 15.467 15.467v1.6h-4.8v-1.6c0-5.891-4.776-10.667-10.667-10.667h-1.6V9.6Z"/><path fill="url(#g)" d="M18.133 25.067H22.4v1.6h-4.267v-1.6Z"/><path fill="url(#h)" d="M5.333 13.867V9.6h1.6v4.267h-1.6Z"/><path fill="url(#i)" d="M5.333 16.533a1.6 1.6 0 0 0 1.6 1.6 6.933 6.933 0 0 1 6.934 6.934 1.6 1.6 0 0 0 1.6 1.6h2.666v-1.6c0-6.186-5.014-11.2-11.2-11.2h-1.6v2.666Z"/><path fill="url(#j)" d="M13.867 25.067h4.266v1.6h-2.666a1.6 1.6 0 0 1-1.6-1.6Z"/><path fill="url(#k)" d="M6.933 18.133a1.6 1.6 0 0 1-1.6-1.6v-2.666h1.6v4.266Z"/></g><defs><radialGradient id="c" cx="0" cy="0" r="1" gradientTransform="rotate(-90 16 9.067) scale(19.7333)" gradientUnits="userSpaceOnUse"><stop offset=".77" stop-color="#FF4000"/><stop offset="1" stop-color="#8754C9"/></radialGradient><radialGradient id="f" cx="0" cy="0" r="1" gradientTransform="rotate(-90 16 9.067) scale(15.4667)" gradientUnits="userSpaceOnUse"><stop offset=".724" stop-color="#FFF700"/><stop offset="1" stop-color="#FF9901"/></radialGradient><radialGradient id="i" cx="0" cy="0" r="1" gradientTransform="rotate(-90 16 9.067) scale(11.2)" gradientUnits="userSpaceOnUse"><stop offset=".595" stop-color="#0AF"/><stop offset="1" stop-color="#01DA40"/></radialGradient><radialGradient id="j" cx="0" cy="0" r="1" gradientTransform="matrix(4.53333 0 0 12.0889 13.6 25.867)" gradientUnits="userSpaceOnUse"><stop stop-color="#0AF"/><stop offset="1" stop-color="#01DA40"/></radialGradient><radialGradient id="k" cx="0" cy="0" r="1" gradientTransform="matrix(0 -4.53333 85.9654 0 6.133 18.4)" gradientUnits="userSpaceOnUse"><stop stop-color="#0AF"/><stop offset="1" stop-color="#01DA40"/></radialGradient><linearGradient id="b" x1="16" x2="16" y1="0" y2="32" gradientUnits="userSpaceOnUse"><stop stop-color="#174299"/><stop offset="1" stop-color="#001E59"/></linearGradient><linearGradient id="d" x1="22.133" x2="26.667" y1="25.867" y2="25.867" gradientUnits="userSpaceOnUse"><stop stop-color="#FF4000"/><stop offset="1" stop-color="#8754C9"/></linearGradient><linearGradient id="e" x1="6.133" x2="6.133" y1="5.333" y2="9.867" gradientUnits="userSpaceOnUse"><stop stop-color="#8754C9"/><stop offset="1" stop-color="#FF4000"/></linearGradient><linearGradient id="g" x1="18.133" x2="22.4" y1="25.867" y2="25.867" gradientUnits="userSpaceOnUse"><stop stop-color="#FFF700"/><stop offset="1" stop-color="#FF9901"/></linearGradient><linearGradient id="h" x1="6.133" x2="6.133" y1="13.867" y2="9.6" gradientUnits="userSpaceOnUse"><stop stop-color="#FFF700"/><stop offset="1" stop-color="#FF9901"/></linearGradient><clipPath id="a"><path fill="#fff" d="M0 0h32v32H0z"/></clipPath></defs></svg>